C:\Users\r0593348\3dpredictsim\Results\batch_windlass\Pog_s1_tmt_bCst_d00_k1000_WL40_ig24_pas_GRF.mot
nRows=27
nColumns=19

name C:\Users\r0593348\3dpredictsim\Results\batch_windlass\Pog_s1_tmt_bCst_d00_k1000_WL40_ig24_pas_GRF.mot
datacolumns 19
datarows 27
range 0.5602339162 0.8515555527
endheader
time 	ground_force_vx	ground_force_vy	ground_force_vz	ground_force_px	ground_force_py	ground_force_pz	1_ground_force_vx	1_ground_force_vy	1_ground_force_vz	1_ground_force_px	1_ground_force_py	1_ground_force_pz	ground_torque_x	ground_torque_y	ground_torque_z	1_ground_torque_x	1_ground_torque_y	1_ground_torque_z
        0.5602339162	       64.7324681725	      389.2952974869	        3.7603455724	        0.3811085525	        0.0000000000	        0.0277793659	      -75.8511014147	       64.1652771824	      -30.5706194729	        0.8678837506	        0.0000000000	       -0.0402222315	        0.0000000000	        0.0000000000	        0.0000000000	        0.0000000000	        0.0000000000	        0.0000000000	
        0.5714385946	       34.0429200331	      286.9854018363	       13.0842180431	        0.3887462249	        0.0000000000	        0.0242851313	     -124.7661445169	      149.0262573525	      -81.1103065093	        0.8749052517	        0.0000000000	       -0.0380169656	        0.0000000000	        0.0000000000	        0.0000000000	        0.0000000000	        0.0000000000	        0.0000000000	
        0.5826432729	       10.3321067136	      192.1167486639	       14.8610768099	        0.4007680955	        0.0000000000	        0.0177343666	      -62.5429714344	      315.5097561565	      -32.0234832850	        0.8803004329	        0.0000000000	       -0.0355000396	        0.0000000000	        0.0000000000	        0.0000000000	        0.0000000000	        0.0000000000	        0.0000000000	
        0.5938479512	       -2.8885468251	      146.0650657807	       12.7184381820	        0.4069904996	        0.0000000000	        0.0136336519	      -48.0729370675	      514.7348427644	       -2.1478469864	        0.8847557668	        0.0000000000	       -0.0357162920	        0.0000000000	        0.0000000000	        0.0000000000	        0.0000000000	        0.0000000000	        0.0000000000	
        0.6050526295	       -5.8770798967	      108.5195926370	        9.1139018214	        0.4072726059	        0.0000000000	        0.0134729108	      -80.4039555736	      737.5392808800	        9.9194952831	        0.8932919795	        0.0000000000	       -0.0381474781	        0.0000000000	        0.0000000000	        0.0000000000	        0.0000000000	        0.0000000000	        0.0000000000	
        0.6162573079	      -10.1060374010	       66.5651530601	        6.3085206512	        0.4074383325	        0.0000000000	        0.0133330055	     -106.5874564095	      862.7147342713	       15.8461759126	        0.8997434286	        0.0000000000	       -0.0399591838	        0.0000000000	        0.0000000000	        0.0000000000	        0.0000000000	        0.0000000000	        0.0000000000	
        0.6274619862	      -15.9122910498	       24.7095763562	        1.9939940814	        0.4056525170	        0.0000000000	        0.0129353341	     -115.8731076126	      900.2884831807	       19.9832504821	        0.9047037629	        0.0000000000	       -0.0411960997	        0.0000000000	        0.0000000000	        0.0000000000	        0.0000000000	        0.0000000000	        0.0000000000	
        0.6386666645	        0.0006694245	       -0.0005671271	        0.0000778872	        0.0000000000	        0.0000000000	        0.0000000000	     -116.4133099099	      899.5239704916	       20.0932090575	        0.9087080739	        0.0000000000	       -0.0420618857	        0.0000000000	        0.0000000000	        0.0000000000	        0.0000000000	        0.0000000000	        0.0000000000	
        0.6498713428	        0.0000789395	       -0.0000565970	        0.0000100188	        0.0000000000	        0.0000000000	        0.0000000000	     -105.5607571847	      870.2930370820	       18.2597927647	        0.9122642262	        0.0000000000	       -0.0424622137	        0.0000000000	        0.0000000000	        0.0000000000	        0.0000000000	        0.0000000000	        0.0000000000	
        0.6610760212	        0.0016895074	       -0.0011011073	        0.0001954062	        0.0000000000	        0.0000000000	        0.0000000000	      -92.1053445318	      821.7758572676	       16.8069769028	        0.9156804414	        0.0000000000	       -0.0425775585	        0.0000000000	        0.0000000000	        0.0000000000	        0.0000000000	        0.0000000000	        0.0000000000	
        0.6722806995	        0.0279782234	       -0.0168607096	        0.0030683258	        0.0000000000	        0.0000000000	        0.0000000000	      -79.7322680183	      774.4602071793	       16.7084310920	        0.9194879963	        0.0000000000	       -0.0425996567	        0.0000000000	        0.0000000000	        0.0000000000	        0.0000000000	        0.0000000000	        0.0000000000	
        0.6834853778	       -0.1756249413	        0.1004025588	       -0.0180268786	        0.0000000000	        0.0000000000	        0.0000000000	      -68.4342126200	      730.5395445931	       17.0893256109	        0.9233041906	        0.0000000000	       -0.0425676715	        0.0000000000	        0.0000000000	        0.0000000000	        0.0000000000	        0.0000000000	        0.0000000000	
        0.6946900561	       -0.1307532663	        0.0714221564	       -0.0127574967	        0.0000000000	        0.0000000000	        0.0000000000	      -58.3236077934	      691.4967517630	       17.6926421079	        0.9269268132	        0.0000000000	       -0.0425466270	        0.0000000000	        0.0000000000	        0.0000000000	        0.0000000000	        0.0000000000	        0.0000000000	
        0.7058947345	       -0.0820603190	        0.0427188842	       -0.0078507864	        0.0000000000	        0.0000000000	        0.0000000000	      -48.9149378928	      659.4688174385	       18.4390466640	        0.9303361031	        0.0000000000	       -0.0425694316	        0.0000000000	        0.0000000000	        0.0000000000	        0.0000000000	        0.0000000000	        0.0000000000	
        0.7170994128	       -0.0595173850	        0.0294966949	       -0.0057123748	        0.0000000000	        0.0000000000	        0.0000000000	      -40.3018299122	      633.9089999950	       19.1991309205	        0.9336451521	        0.0000000000	       -0.0426374975	        0.0000000000	        0.0000000000	        0.0000000000	        0.0000000000	        0.0000000000	        0.0000000000	
        0.7283040911	       -0.0531516612	        0.0251412366	       -0.0051700938	        0.0000000000	        0.0000000000	        0.0000000000	      -32.7025502437	      613.6224976302	       19.8609640341	        0.9369885450	        0.0000000000	       -0.0427382193	        0.0000000000	        0.0000000000	        0.0000000000	        0.0000000000	        0.0000000000	        0.0000000000	
        0.7395087694	       -0.0585453287	        0.0265703250	       -0.0057765698	        0.0000000000	        0.0000000000	        0.0000000000	      -26.7320753323	      598.0646236355	       20.4018432338	        0.9404607351	        0.0000000000	       -0.0428522201	        0.0000000000	        0.0000000000	        0.0000000000	        0.0000000000	        0.0000000000	        0.0000000000	
        0.7507134478	       -0.0775421720	        0.0339811296	       -0.0077635599	        0.0000000000	        0.0000000000	        0.0000000000	      -22.7895650281	      587.0511112308	       20.8223878498	        0.9439852064	        0.0000000000	       -0.0429657833	        0.0000000000	        0.0000000000	        0.0000000000	        0.0000000000	        0.0000000000	        0.0000000000	
        0.7619181261	       -0.1180753490	        0.0502541729	       -0.0119648699	        0.0000000000	        0.0000000000	        0.0000000000	      -19.8112670232	      579.8840579421	       20.9991458333	        0.9474770582	        0.0000000000	       -0.0430754992	        0.0000000000	        0.0000000000	        0.0000000000	        0.0000000000	        0.0000000000	        0.0000000000	
        0.7731228044	       -0.1948881361	        0.0809355256	       -0.0198742251	        0.0000000000	        0.0000000000	        0.0000000000	      -16.9683755916	      575.1116967665	       20.8737448153	        0.9509630698	        0.0000000000	       -0.0431755541	        0.0000000000	        0.0000000000	        0.0000000000	        0.0000000000	        0.0000000000	        0.0000000000	
        0.7843274827	       -0.3274154977	        0.1331631086	       -0.0333534342	        0.0000000000	        0.0000000000	        0.0000000000	      -14.1296402771	      571.9403968644	       20.4683093267	        0.9544964083	        0.0000000000	       -0.0432553340	        0.0000000000	        0.0000000000	        0.0000000000	        0.0000000000	        0.0000000000	        0.0000000000	
        0.7955321611	       -0.5277865762	        0.2109130170	       -0.0533318121	        0.0000000000	        0.0000000000	        0.0000000000	      -10.9403798023	      570.1931077750	       20.1786131948	        0.9582960910	        0.0000000000	       -0.0432893863	        0.0000000000	        0.0000000000	        0.0000000000	        0.0000000000	        0.0000000000	        0.0000000000	
        0.8067368394	       -0.7778332453	        0.3064418560	       -0.0775020293	        0.0000000000	        0.0000000000	        0.0000000000	       -7.8739532456	      569.0078008589	       19.9396111034	        0.9623614069	        0.0000000000	       -0.0432681637	        0.0000000000	        0.0000000000	        0.0000000000	        0.0000000000	        0.0000000000	        0.0000000000	
        0.8179415177	       -1.0249677081	        0.3994463980	       -0.1000656215	        0.0000000000	        0.0000000000	        0.0000000000	       -4.7614589464	      567.7702777602	       19.7932418592	        0.9665981947	        0.0000000000	       -0.0431969743	        0.0000000000	        0.0000000000	        0.0000000000	        0.0000000000	        0.0000000000	        0.0000000000	
        0.8291461960	       -1.2052430159	        0.4660620531	       -0.1144993862	        0.0000000000	        0.0000000000	        0.0000000000	       -1.4435741437	      566.2738145963	       19.4413974002	        0.9710511837	        0.0000000000	       -0.0430802064	        0.0000000000	        0.0000000000	        0.0000000000	        0.0000000000	        0.0000000000	        0.0000000000	
        0.8403508744	       -1.2775468256	        0.4913814510	       -0.1171498082	        0.0000000000	        0.0000000000	        0.0000000000	        1.7484989046	      564.3006547043	       18.7549999597	        0.9757360374	        0.0000000000	       -0.0429164520	        0.0000000000	        0.0000000000	        0.0000000000	        0.0000000000	        0.0000000000	        0.0000000000	
        0.8515555527	       -1.2381641162	        0.4744656462	       -0.1081753875	        0.0000000000	        0.0000000000	        0.0000000000	        5.1791032763	      561.3712773192	       17.4507639743	        0.9805843629	        0.0000000000	       -0.0427168718	        0.0000000000	        0.0000000000	        0.0000000000	        0.0000000000	        0.0000000000	        0.0000000000	
